<?xml version="1.0" encoding="UTF-8"?>
<svg id="Camada_2" data-name="Camada 2" xmlns="http://www.w3.org/2000/svg" viewBox="0 0 361.53 361.53">
  <defs>
    <style>
      .cls-1 {
        fill: none;
        stroke: #fff;
        stroke-miterlimit: 10;
        stroke-width: 6px;
      }

      .cls-2 {
        fill: #4f6ef7;
      }
    </style>
  </defs>
  <g id="Camada_1-2" data-name="Camada 1">
    <g>
      <rect class="cls-2" width="361.53" height="361.53" rx="58.49" ry="58.49"/>
      <g>
        <path class="cls-1" d="M264.45,66.36c2.49,0,4.38,2.25,3.94,4.7l-2.22,12.62-5.8,32.94c-.34,1.91-2,3.31-3.95,3.31h-77.88c-1.95,0-3.61,1.4-3.95,3.32l-3.79,21.82c-.43,2.45,1.46,4.69,3.95,4.69h51.33c2.5,0,4.38,2.26,3.94,4.71l-2.26,12.6-5.43,30.21c-.34,1.91-2,3.3-3.94,3.3h-54.16c-1.94,0-3.61,1.4-3.95,3.31l-13.14,74.64c-.34,1.91-2,3.31-3.95,3.31h-59.43c-2.49,0-4.38-2.25-3.94-4.7l36.64-207.48c.34-1.91,2-3.31,3.94-3.31h144.05Z"/>
        <path class="cls-1" d="M227.17,170.37l-4.83,26.92c-.34,1.91-2,3.3-3.94,3.3h-54.16c-1.94,0-3.61,1.4-3.95,3.31l-13.14,74.64c-.34,1.91-2,3.31-3.95,3.31h-40.47c-1.94,0-3.61,1.39-3.94,3.31l-1.64,9.3c-.43,2.45,1.45,4.7,3.94,4.7h59.43c1.94,0,3.61-1.4,3.95-3.31l13.14-74.64c.34-1.91,2-3.31,3.95-3.31h54.16c1.94,0,3.6-1.39,3.94-3.3l7.69-42.82c.44-2.46-1.45-4.71-3.94-4.71h-12.29c-1.94,0-3.6,1.39-3.94,3.3ZM265.59,86.99l-5.22,29.63c-.34,1.91-2,3.31-3.95,3.31h-77.88c-1.95,0-3.61,1.4-3.95,3.32l-3.79,21.82c-.43,2.45,1.46,4.69,3.95,4.69h12.19c1.95,0,3.61-1.4,3.95-3.32l1.02-5.87c.33-1.92,2-3.32,3.95-3.32h77.88c1.94,0,3.61-1.4,3.95-3.31l8.03-45.56c.43-2.45-1.45-4.7-3.95-4.7h-12.23c-1.94,0-3.61,1.4-3.95,3.31Z"/>
      </g>
    </g>
  </g>
</svg>